<?xml version="1.0" encoding="UTF-8"?>
<svg xmlns="http://www.w3.org/2000/svg" xmlns:xlink="http://www.w3.org/1999/xlink" width="32px" height="32px" viewBox="0 0 32 32" version="1.1">
<defs>
<filter id="alpha" filterUnits="objectBoundingBox" x="0%" y="0%" width="100%" height="100%">
  <feColorMatrix type="matrix" in="SourceGraphic" values="0 0 0 0 1 0 0 0 0 1 0 0 0 0 1 0 0 0 1 0"/>
</filter>
<mask id="mask0">
  <g filter="url(#alpha)">
<rect x="0" y="0" width="32" height="32" style="fill:rgb(0%,0%,0%);fill-opacity:0.996078;stroke:none;"/>
  </g>
</mask>
<clipPath id="clip1">
  <rect x="0" y="0" width="32" height="32"/>
</clipPath>
<g id="surface5" clip-path="url(#clip1)">
<path style=" stroke:none;fill-rule:evenodd;fill:rgb(0%,0%,0%);fill-opacity:1;" d="M 17.484375 5.453125 C 17.535156 5.800781 17.519531 6.144531 17.4375 6.484375 C 17.34375 6.792969 17.234375 7.09375 17.109375 7.390625 C 16.929688 7.71875 16.742188 8.039062 16.546875 8.359375 C 16.148438 8.921875 15.722656 9.464844 15.265625 9.984375 C 14.035156 11.28125 12.652344 12.375 11.109375 13.265625 C 10.789062 13.441406 10.464844 13.609375 10.140625 13.765625 C 9.792969 13.910156 9.4375 14.035156 9.078125 14.140625 C 8.382812 14.363281 7.6875 14.382812 6.984375 14.203125 C 6.550781 13.9375 6.34375 13.546875 6.359375 13.03125 C 6.375 12.648438 6.453125 12.277344 6.59375 11.921875 C 6.730469 11.574219 6.890625 11.242188 7.078125 10.921875 C 6.210938 10.054688 5.359375 9.179688 4.515625 8.296875 C 5.519531 7.902344 6.457031 7.386719 7.328125 6.75 C 8.710938 5.761719 9.882812 4.570312 10.84375 3.171875 C 10.972656 2.949219 11.089844 2.71875 11.203125 2.484375 C 10.25 3.753906 9.125 4.875 7.828125 5.84375 C 7.066406 6.402344 6.253906 6.882812 5.390625 7.28125 C 4.921875 7.488281 4.433594 7.582031 3.921875 7.5625 C 3.625 7.46875 3.492188 7.265625 3.515625 6.953125 C 3.507812 6.792969 3.535156 6.636719 3.59375 6.484375 C 3.851562 5.894531 4.183594 5.351562 4.59375 4.859375 C 5.054688 4.304688 5.546875 3.785156 6.078125 3.296875 C 6.160156 3.269531 6.222656 3.214844 6.265625 3.140625 C 7.296875 2.179688 8.453125 1.390625 9.734375 0.78125 C 10.105469 0.617188 10.492188 0.5 10.890625 0.4375 C 11.21875 0.375 11.496094 0.464844 11.71875 0.703125 C 12.6875 2.066406 13.65625 3.433594 14.625 4.796875 C 15.335938 4.527344 16.058594 4.480469 16.796875 4.65625 C 17.15625 4.8125 17.382812 5.078125 17.484375 5.453125 Z M 17.484375 5.453125 "/>
</g>
<mask id="mask1">
  <g filter="url(#alpha)">
<rect x="0" y="0" width="32" height="32" style="fill:rgb(0%,0%,0%);fill-opacity:0.972549;stroke:none;"/>
  </g>
</mask>
<clipPath id="clip2">
  <rect x="0" y="0" width="32" height="32"/>
</clipPath>
<g id="surface8" clip-path="url(#clip2)">
<path style=" stroke:none;fill-rule:evenodd;fill:rgb(98.039216%,98.039216%,98.039216%);fill-opacity:1;" d="M 4.515625 8.296875 C 4.140625 8.433594 3.757812 8.480469 3.359375 8.4375 C 2.976562 8.363281 2.777344 8.128906 2.765625 7.734375 C 2.820312 7.289062 2.960938 6.871094 3.1875 6.484375 C 3.75 5.566406 4.433594 4.738281 5.234375 4 C 5.507812 3.75 5.789062 3.515625 6.078125 3.296875 C 5.546875 3.785156 5.054688 4.304688 4.59375 4.859375 C 4.183594 5.351562 3.851562 5.894531 3.59375 6.484375 C 3.535156 6.636719 3.507812 6.792969 3.515625 6.953125 C 3.492188 7.265625 3.625 7.46875 3.921875 7.5625 C 4.433594 7.582031 4.921875 7.488281 5.390625 7.28125 C 6.253906 6.882812 7.066406 6.402344 7.828125 5.84375 C 9.125 4.875 10.25 3.753906 11.203125 2.484375 C 11.089844 2.71875 10.972656 2.949219 10.84375 3.171875 C 9.882812 4.570312 8.710938 5.761719 7.328125 6.75 C 6.457031 7.386719 5.519531 7.902344 4.515625 8.296875 Z M 4.515625 8.296875 "/>
</g>
<mask id="mask2">
  <g filter="url(#alpha)">
<rect x="0" y="0" width="32" height="32" style="fill:rgb(0%,0%,0%);fill-opacity:0.976471;stroke:none;"/>
  </g>
</mask>
<clipPath id="clip3">
  <rect x="0" y="0" width="32" height="32"/>
</clipPath>
<g id="surface11" clip-path="url(#clip3)">
<path style=" stroke:none;fill-rule:evenodd;fill:rgb(46.666667%,46.666667%,46.666667%);fill-opacity:1;" d="M 6.265625 3.140625 C 6.222656 3.214844 6.160156 3.269531 6.078125 3.296875 C 6.121094 3.222656 6.183594 3.167969 6.265625 3.140625 Z M 6.265625 3.140625 "/>
</g>
<mask id="mask3">
  <g filter="url(#alpha)">
<rect x="0" y="0" width="32" height="32" style="fill:rgb(0%,0%,0%);fill-opacity:0.996078;stroke:none;"/>
  </g>
</mask>
<clipPath id="clip4">
  <rect x="0" y="0" width="32" height="32"/>
</clipPath>
<g id="surface14" clip-path="url(#clip4)">
<path style=" stroke:none;fill-rule:evenodd;fill:rgb(62.7451%,35.294119%,37.64706%);fill-opacity:1;" d="M 6.984375 14.203125 C 7.6875 14.382812 8.382812 14.363281 9.078125 14.140625 C 8.792969 14.65625 8.570312 15.199219 8.40625 15.765625 C 8.347656 16.277344 8.398438 16.777344 8.5625 17.265625 C 8.636719 17.496094 8.785156 17.574219 9.015625 17.5 C 9.265625 17.34375 9.492188 17.148438 9.6875 16.921875 C 9.894531 16.664062 10.113281 16.414062 10.34375 16.171875 C 10.582031 15.878906 10.667969 15.546875 10.59375 15.171875 C 10.496094 14.886719 10.390625 14.605469 10.28125 14.328125 C 10.253906 14.175781 10.230469 14.027344 10.203125 13.875 C 10.199219 13.824219 10.179688 13.785156 10.140625 13.765625 C 10.464844 13.609375 10.789062 13.441406 11.109375 13.265625 C 11.359375 13.84375 11.5 14.445312 11.53125 15.078125 C 11.574219 15.316406 11.714844 15.429688 11.953125 15.421875 C 12.136719 15.410156 12.3125 15.375 12.484375 15.3125 C 13.148438 15.011719 13.792969 14.679688 14.421875 14.3125 C 14.808594 14.195312 15.09375 14.316406 15.28125 14.671875 C 15.488281 15.042969 15.464844 15.398438 15.21875 15.734375 C 14.808594 16.175781 14.304688 16.429688 13.703125 16.5 C 13.03125 16.539062 12.367188 16.613281 11.703125 16.71875 C 10.480469 17.085938 9.894531 17.902344 9.9375 19.171875 C 10.078125 19.6875 10.394531 20.046875 10.890625 20.25 C 11.121094 20.289062 11.339844 20.257812 11.546875 20.15625 C 11.691406 20.03125 11.839844 19.90625 11.984375 19.78125 C 12.167969 19.640625 12.355469 19.640625 12.546875 19.78125 C 12.777344 19.957031 13.003906 20.136719 13.234375 20.3125 C 13.503906 20.46875 13.796875 20.535156 14.109375 20.515625 C 14.441406 20.496094 14.777344 20.488281 15.109375 20.484375 C 15.09375 21.378906 15.0625 22.277344 15.015625 23.171875 C 15.027344 23.359375 15.035156 23.546875 15.046875 23.734375 C 15.335938 22.863281 15.644531 22 15.96875 21.140625 C 16.058594 20.925781 16.175781 20.730469 16.3125 20.546875 C 16.40625 20.453125 16.515625 20.386719 16.640625 20.34375 C 17.023438 20.390625 17.398438 20.359375 17.765625 20.25 C 17.882812 20.195312 17.917969 20.109375 17.875 19.984375 C 17.578125 19.292969 17.0625 18.859375 16.328125 18.6875 C 15.511719 18.542969 14.761719 18.699219 14.078125 19.15625 C 13.992188 19.164062 13.921875 19.128906 13.875 19.046875 C 13.859375 18.992188 13.839844 18.941406 13.8125 18.890625 C 13.804688 18.660156 13.789062 18.429688 13.765625 18.203125 C 14.671875 17.566406 15.671875 17.339844 16.765625 17.53125 C 17.21875 17.628906 17.632812 17.804688 18.015625 18.0625 C 18.183594 18.21875 18.335938 18.390625 18.46875 18.578125 C 18.714844 18.847656 19.023438 19 19.390625 19.03125 C 20.25 19.132812 21.082031 19.027344 21.890625 18.71875 C 22.667969 18.410156 22.984375 17.84375 22.84375 17.015625 C 22.601562 16.0625 22.0625 15.328125 21.234375 14.8125 C 21.042969 14.714844 20.839844 14.65625 20.625 14.640625 C 20.410156 14.703125 20.195312 14.769531 19.984375 14.84375 C 19.375 14.996094 19.132812 14.761719 19.25 14.140625 C 19.378906 13.871094 19.59375 13.707031 19.890625 13.65625 C 20.703125 13.601562 21.441406 13.804688 22.109375 14.265625 C 22.15625 14.109375 22.199219 13.953125 22.234375 13.796875 C 22.476562 13.175781 22.765625 12.570312 23.09375 11.984375 C 23.355469 11.683594 23.683594 11.566406 24.078125 11.625 C 24.367188 11.761719 24.476562 11.984375 24.40625 12.296875 C 24.257812 12.753906 24.046875 13.179688 23.78125 13.578125 C 23.617188 13.882812 23.472656 14.195312 23.34375 14.515625 C 23.054688 15.484375 23.382812 16.136719 24.328125 16.46875 C 25.402344 16.609375 26.335938 16.3125 27.125 15.578125 C 27.394531 15.203125 27.394531 14.828125 27.125 14.453125 C 26.96875 14.285156 26.84375 14.097656 26.75 13.890625 C 26.730469 13.796875 26.730469 13.703125 26.75 13.609375 C 27.019531 12.625 26.902344 11.6875 26.40625 10.796875 C 26.148438 10.351562 25.789062 10.011719 25.328125 9.78125 C 25.175781 9.71875 25.019531 9.695312 24.859375 9.71875 C 24.605469 9.835938 24.347656 9.933594 24.078125 10.015625 C 23.945312 9.992188 23.832031 9.933594 23.734375 9.84375 C 23.355469 9.398438 23.082031 8.890625 22.90625 8.328125 C 22.753906 7.914062 22.519531 7.554688 22.203125 7.25 C 21.769531 6.953125 21.289062 6.851562 20.765625 6.9375 C 20.09375 7.128906 19.589844 7.53125 19.25 8.140625 C 19.144531 8.308594 19.054688 8.488281 18.984375 8.671875 C 18.921875 8.753906 18.859375 8.835938 18.796875 8.921875 C 18.703125 8.863281 18.609375 8.808594 18.515625 8.75 C 18.0625 8.28125 17.59375 7.828125 17.109375 7.390625 C 17.234375 7.09375 17.34375 6.792969 17.4375 6.484375 C 17.519531 6.144531 17.535156 5.800781 17.484375 5.453125 C 17.851562 5.648438 18.191406 5.890625 18.5 6.171875 C 19.699219 5.109375 21.058594 4.84375 22.578125 5.375 C 23.328125 5.707031 23.894531 6.234375 24.28125 6.953125 C 24.445312 7.265625 24.597656 7.582031 24.734375 7.90625 C 25.773438 7.886719 26.640625 8.253906 27.34375 9.015625 C 28.457031 10.273438 28.902344 11.742188 28.671875 13.421875 C 29.539062 14.933594 29.289062 16.230469 27.921875 17.3125 C 26.921875 18.011719 25.804688 18.351562 24.578125 18.328125 C 24.34375 19.101562 23.875 19.691406 23.171875 20.09375 C 22.046875 20.675781 20.847656 20.933594 19.578125 20.859375 C 19.414062 21.257812 19.144531 21.566406 18.765625 21.78125 C 18.382812 21.96875 17.980469 22.097656 17.5625 22.171875 C 17.355469 22.734375 17.144531 23.296875 16.9375 23.859375 C 16.796875 24.96875 16.171875 25.582031 15.0625 25.703125 C 14.042969 25.636719 13.425781 25.105469 13.21875 24.109375 C 13.164062 23.472656 13.15625 22.839844 13.203125 22.203125 C 12.855469 22.140625 12.535156 22.015625 12.234375 21.828125 C 10.910156 22.320312 9.789062 22.027344 8.875 20.953125 C 8.503906 20.421875 8.253906 19.839844 8.125 19.203125 C 7.414062 18.917969 6.957031 18.410156 6.75 17.671875 C 6.472656 16.800781 6.449219 15.925781 6.6875 15.046875 C 6.777344 14.761719 6.875 14.480469 6.984375 14.203125 Z M 6.984375 14.203125 "/>
</g>
<mask id="mask4">
  <g filter="url(#alpha)">
<rect x="0" y="0" width="32" height="32" style="fill:rgb(0%,0%,0%);fill-opacity:0.980392;stroke:none;"/>
  </g>
</mask>
<clipPath id="clip5">
  <rect x="0" y="0" width="32" height="32"/>
</clipPath>
<g id="surface17" clip-path="url(#clip5)">
<path style=" stroke:none;fill-rule:evenodd;fill:rgb(0%,26.274511%,42.352942%);fill-opacity:1;" d="M 4.015625 25.953125 C 4.777344 25.949219 5.535156 25.953125 6.296875 25.96875 C 7.515625 26.128906 8.292969 26.800781 8.625 27.984375 C 8.800781 28.816406 8.738281 29.628906 8.4375 30.421875 C 7.992188 31.296875 7.277344 31.789062 6.296875 31.90625 C 5.535156 31.921875 4.777344 31.925781 4.015625 31.921875 C 4.015625 29.933594 4.015625 27.941406 4.015625 25.953125 Z M 5.484375 27.078125 C 5.757812 27.070312 6.027344 27.085938 6.296875 27.125 C 6.78125 27.277344 7.070312 27.605469 7.15625 28.109375 C 7.261719 28.660156 7.261719 29.214844 7.15625 29.765625 C 7.070312 30.269531 6.78125 30.597656 6.296875 30.75 C 6.027344 30.792969 5.757812 30.808594 5.484375 30.796875 C 5.484375 29.558594 5.484375 28.316406 5.484375 27.078125 Z M 5.484375 27.078125 "/>
</g>
<mask id="mask5">
  <g filter="url(#alpha)">
<rect x="0" y="0" width="32" height="32" style="fill:rgb(0%,0%,0%);fill-opacity:0.984314;stroke:none;"/>
  </g>
</mask>
<clipPath id="clip6">
  <rect x="0" y="0" width="32" height="32"/>
</clipPath>
<g id="surface20" clip-path="url(#clip6)">
<path style=" stroke:none;fill-rule:evenodd;fill:rgb(0%,25.882354%,42.352942%);fill-opacity:1;" d="M 11.140625 25.953125 C 11.605469 25.941406 12.070312 25.953125 12.53125 25.984375 C 13.265625 27.960938 13.988281 29.941406 14.703125 31.921875 C 14.183594 31.933594 13.660156 31.921875 13.140625 31.890625 C 13.027344 31.539062 12.914062 31.191406 12.796875 30.84375 C 12.152344 30.816406 11.503906 30.824219 10.859375 30.859375 C 10.746094 31.210938 10.632812 31.558594 10.515625 31.90625 C 9.996094 31.925781 9.472656 31.925781 8.953125 31.90625 C 9.683594 29.921875 10.414062 27.9375 11.140625 25.953125 Z M 11.828125 27.734375 C 12.039062 28.371094 12.246094 29.011719 12.453125 29.65625 C 12.046875 29.671875 11.640625 29.675781 11.234375 29.671875 C 11.417969 29.023438 11.617188 28.375 11.828125 27.734375 Z M 11.828125 27.734375 "/>
</g>
<mask id="mask6">
  <g filter="url(#alpha)">
<rect x="0" y="0" width="32" height="32" style="fill:rgb(0%,0%,0%);fill-opacity:0.980392;stroke:none;"/>
  </g>
</mask>
<clipPath id="clip7">
  <rect x="0" y="0" width="32" height="32"/>
</clipPath>
<g id="surface23" clip-path="url(#clip7)">
<path style=" stroke:none;fill-rule:evenodd;fill:rgb(0%,25.882354%,42.352942%);fill-opacity:1;" d="M 15.109375 25.953125 C 15.597656 25.949219 16.089844 25.953125 16.578125 25.96875 C 17.265625 27.160156 17.945312 28.351562 18.625 29.546875 C 18.640625 28.347656 18.644531 27.152344 18.640625 25.953125 C 19.128906 25.953125 19.621094 25.953125 20.109375 25.953125 C 20.109375 27.941406 20.109375 29.933594 20.109375 31.921875 C 19.621094 31.933594 19.128906 31.921875 18.640625 31.890625 C 17.957031 30.691406 17.277344 29.496094 16.59375 28.296875 C 16.578125 29.503906 16.574219 30.714844 16.578125 31.921875 C 16.089844 31.921875 15.597656 31.921875 15.109375 31.921875 C 15.109375 29.933594 15.109375 27.941406 15.109375 25.953125 Z M 15.109375 25.953125 "/>
</g>
<mask id="mask7">
  <g filter="url(#alpha)">
<rect x="0" y="0" width="32" height="32" style="fill:rgb(0%,0%,0%);fill-opacity:0.980392;stroke:none;"/>
  </g>
</mask>
<clipPath id="clip8">
  <rect x="0" y="0" width="32" height="32"/>
</clipPath>
<g id="surface26" clip-path="url(#clip8)">
<path style=" stroke:none;fill-rule:evenodd;fill:rgb(0%,26.274511%,42.352942%);fill-opacity:1;" d="M 20.984375 25.953125 C 21.746094 25.949219 22.503906 25.953125 23.265625 25.96875 C 24.484375 26.128906 25.261719 26.800781 25.59375 27.984375 C 25.769531 28.816406 25.707031 29.628906 25.40625 30.421875 C 24.960938 31.296875 24.246094 31.789062 23.265625 31.90625 C 22.503906 31.921875 21.746094 31.925781 20.984375 31.921875 C 20.984375 29.933594 20.984375 27.941406 20.984375 25.953125 Z M 22.453125 27.078125 C 22.84375 27.039062 23.21875 27.097656 23.578125 27.25 C 23.835938 27.433594 24.007812 27.679688 24.09375 27.984375 C 24.226562 28.574219 24.238281 29.167969 24.125 29.765625 C 24.039062 30.269531 23.75 30.597656 23.265625 30.75 C 22.996094 30.792969 22.726562 30.808594 22.453125 30.796875 C 22.453125 29.558594 22.453125 28.316406 22.453125 27.078125 Z M 22.453125 27.078125 "/>
</g>
<mask id="mask8">
  <g filter="url(#alpha)">
<rect x="0" y="0" width="32" height="32" style="fill:rgb(0%,0%,0%);fill-opacity:0.968627;stroke:none;"/>
  </g>
</mask>
<clipPath id="clip9">
  <rect x="0" y="0" width="32" height="32"/>
</clipPath>
<g id="surface29" clip-path="url(#clip9)">
<path style=" stroke:none;fill-rule:evenodd;fill:rgb(0%,26.274511%,42.352942%);fill-opacity:1;" d="M 26.484375 25.953125 C 26.972656 25.953125 27.464844 25.953125 27.953125 25.953125 C 27.953125 27.941406 27.953125 29.933594 27.953125 31.921875 C 27.464844 31.921875 26.972656 31.921875 26.484375 31.921875 C 26.484375 29.933594 26.484375 27.941406 26.484375 25.953125 Z M 26.484375 25.953125 "/>
</g>
</defs>
<g id="surface1">
<use xlink:href="#surface5" mask="url(#mask0)"/>
<use xlink:href="#surface8" mask="url(#mask1)"/>
<use xlink:href="#surface11" mask="url(#mask2)"/>
<use xlink:href="#surface14" mask="url(#mask3)"/>
<path style=" stroke:none;fill-rule:evenodd;fill:rgb(82.352942%,52.156866%,54.901963%);fill-opacity:1;" d="M 22.234375 13.796875 C 22.257812 13.140625 22.0625 12.554688 21.65625 12.046875 C 21.421875 11.824219 21.148438 11.660156 20.84375 11.546875 C 20.753906 10.445312 20.269531 9.566406 19.390625 8.90625 C 19.253906 8.828125 19.117188 8.75 18.984375 8.671875 C 19.054688 8.488281 19.144531 8.308594 19.25 8.140625 C 19.589844 7.53125 20.09375 7.128906 20.765625 6.9375 C 21.289062 6.851562 21.769531 6.953125 22.203125 7.25 C 22.519531 7.554688 22.753906 7.914062 22.90625 8.328125 C 23.082031 8.890625 23.355469 9.398438 23.734375 9.84375 C 23.832031 9.933594 23.945312 9.992188 24.078125 10.015625 C 24.347656 9.933594 24.605469 9.835938 24.859375 9.71875 C 25.019531 9.695312 25.175781 9.71875 25.328125 9.78125 C 25.789062 10.011719 26.148438 10.351562 26.40625 10.796875 C 26.902344 11.6875 27.019531 12.625 26.75 13.609375 C 26.730469 13.703125 26.730469 13.796875 26.75 13.890625 C 26.84375 14.097656 26.96875 14.285156 27.125 14.453125 C 27.394531 14.828125 27.394531 15.203125 27.125 15.578125 C 26.335938 16.3125 25.402344 16.609375 24.328125 16.46875 C 23.382812 16.136719 23.054688 15.484375 23.34375 14.515625 C 23.472656 14.195312 23.617188 13.882812 23.78125 13.578125 C 24.046875 13.179688 24.257812 12.753906 24.40625 12.296875 C 24.476562 11.984375 24.367188 11.761719 24.078125 11.625 C 23.683594 11.566406 23.355469 11.683594 23.09375 11.984375 C 22.765625 12.570312 22.476562 13.175781 22.234375 13.796875 Z M 22.234375 13.796875 "/>
<path style=" stroke:none;fill-rule:evenodd;fill:rgb(93.725491%,64.313728%,67.058825%);fill-opacity:1;" d="M 17.109375 7.390625 C 17.59375 7.828125 18.0625 8.28125 18.515625 8.75 C 18.609375 8.808594 18.703125 8.863281 18.796875 8.921875 C 18.859375 8.835938 18.921875 8.753906 18.984375 8.671875 C 19.117188 8.75 19.253906 8.828125 19.390625 8.90625 C 20.269531 9.566406 20.753906 10.445312 20.84375 11.546875 C 21.148438 11.660156 21.421875 11.824219 21.65625 12.046875 C 22.0625 12.554688 22.257812 13.140625 22.234375 13.796875 C 22.199219 13.953125 22.15625 14.109375 22.109375 14.265625 C 21.441406 13.804688 20.703125 13.601562 19.890625 13.65625 C 19.59375 13.707031 19.378906 13.871094 19.25 14.140625 C 19.132812 14.761719 19.375 14.996094 19.984375 14.84375 C 20.195312 14.769531 20.410156 14.703125 20.625 14.640625 C 20.839844 14.65625 21.042969 14.714844 21.234375 14.8125 C 22.0625 15.328125 22.601562 16.0625 22.84375 17.015625 C 22.984375 17.84375 22.667969 18.410156 21.890625 18.71875 C 21.082031 19.027344 20.25 19.132812 19.390625 19.03125 C 19.023438 19 18.714844 18.847656 18.46875 18.578125 C 18.335938 18.390625 18.183594 18.21875 18.015625 18.0625 C 17.632812 17.804688 17.21875 17.628906 16.765625 17.53125 C 15.671875 17.339844 14.671875 17.566406 13.765625 18.203125 C 13.789062 18.429688 13.804688 18.660156 13.8125 18.890625 C 13.839844 18.941406 13.859375 18.992188 13.875 19.046875 C 13.921875 19.128906 13.992188 19.164062 14.078125 19.15625 C 14.761719 18.699219 15.511719 18.542969 16.328125 18.6875 C 17.0625 18.859375 17.578125 19.292969 17.875 19.984375 C 17.917969 20.109375 17.882812 20.195312 17.765625 20.25 C 17.398438 20.359375 17.023438 20.390625 16.640625 20.34375 C 16.515625 20.386719 16.40625 20.453125 16.3125 20.546875 C 16.175781 20.730469 16.058594 20.925781 15.96875 21.140625 C 15.644531 22 15.335938 22.863281 15.046875 23.734375 C 15.035156 23.546875 15.027344 23.359375 15.015625 23.171875 C 15.0625 22.277344 15.09375 21.378906 15.109375 20.484375 C 14.777344 20.488281 14.441406 20.496094 14.109375 20.515625 C 13.796875 20.535156 13.503906 20.46875 13.234375 20.3125 C 13.003906 20.136719 12.777344 19.957031 12.546875 19.78125 C 12.355469 19.640625 12.167969 19.640625 11.984375 19.78125 C 11.839844 19.90625 11.691406 20.03125 11.546875 20.15625 C 11.339844 20.257812 11.121094 20.289062 10.890625 20.25 C 10.394531 20.046875 10.078125 19.6875 9.9375 19.171875 C 9.894531 17.902344 10.480469 17.085938 11.703125 16.71875 C 12.367188 16.613281 13.03125 16.539062 13.703125 16.5 C 14.304688 16.429688 14.808594 16.175781 15.21875 15.734375 C 15.464844 15.398438 15.488281 15.042969 15.28125 14.671875 C 15.09375 14.316406 14.808594 14.195312 14.421875 14.3125 C 13.792969 14.679688 13.148438 15.011719 12.484375 15.3125 C 12.3125 15.375 12.136719 15.410156 11.953125 15.421875 C 11.714844 15.429688 11.574219 15.316406 11.53125 15.078125 C 11.5 14.445312 11.359375 13.84375 11.109375 13.265625 C 12.652344 12.375 14.035156 11.28125 15.265625 9.984375 C 15.453125 10.148438 15.59375 10.34375 15.6875 10.578125 C 15.792969 10.980469 15.878906 11.386719 15.9375 11.796875 C 16.015625 12.316406 16.300781 12.652344 16.796875 12.8125 C 17.304688 12.894531 17.554688 12.679688 17.546875 12.171875 C 17.554688 12.019531 17.527344 11.875 17.46875 11.734375 C 17.25 11.296875 17 10.878906 16.71875 10.484375 C 16.605469 10.300781 16.527344 10.101562 16.484375 9.890625 C 16.476562 9.789062 16.519531 9.710938 16.609375 9.65625 C 16.863281 9.558594 17.046875 9.386719 17.15625 9.140625 C 17.199219 8.847656 17.101562 8.613281 16.859375 8.4375 C 16.765625 8.375 16.660156 8.347656 16.546875 8.359375 C 16.742188 8.039062 16.929688 7.71875 17.109375 7.390625 Z M 17.109375 7.390625 "/>
<path style=" stroke:none;fill-rule:evenodd;fill:rgb(62.7451%,35.294119%,37.64706%);fill-opacity:1;" d="M 16.546875 8.359375 C 16.660156 8.347656 16.765625 8.375 16.859375 8.4375 C 17.101562 8.613281 17.199219 8.847656 17.15625 9.140625 C 17.046875 9.386719 16.863281 9.558594 16.609375 9.65625 C 16.519531 9.710938 16.476562 9.789062 16.484375 9.890625 C 16.527344 10.101562 16.605469 10.300781 16.71875 10.484375 C 17 10.878906 17.25 11.296875 17.46875 11.734375 C 17.527344 11.875 17.554688 12.019531 17.546875 12.171875 C 17.554688 12.679688 17.304688 12.894531 16.796875 12.8125 C 16.300781 12.652344 16.015625 12.316406 15.9375 11.796875 C 15.878906 11.386719 15.792969 10.980469 15.6875 10.578125 C 15.59375 10.34375 15.453125 10.148438 15.265625 9.984375 C 15.722656 9.464844 16.148438 8.921875 16.546875 8.359375 Z M 16.546875 8.359375 "/>
<path style=" stroke:none;fill-rule:evenodd;fill:rgb(93.725491%,64.313728%,67.058825%);fill-opacity:1;" d="M 10.140625 13.765625 C 10.179688 13.785156 10.199219 13.824219 10.203125 13.875 C 10.230469 14.027344 10.253906 14.175781 10.28125 14.328125 C 10.390625 14.605469 10.496094 14.886719 10.59375 15.171875 C 10.667969 15.546875 10.582031 15.878906 10.34375 16.171875 C 10.113281 16.414062 9.894531 16.664062 9.6875 16.921875 C 9.492188 17.148438 9.265625 17.34375 9.015625 17.5 C 8.785156 17.574219 8.636719 17.496094 8.5625 17.265625 C 8.398438 16.777344 8.347656 16.277344 8.40625 15.765625 C 8.570312 15.199219 8.792969 14.65625 9.078125 14.140625 C 9.4375 14.035156 9.792969 13.910156 10.140625 13.765625 Z M 10.140625 13.765625 "/>
<use xlink:href="#surface17" mask="url(#mask4)"/>
<use xlink:href="#surface20" mask="url(#mask5)"/>
<use xlink:href="#surface23" mask="url(#mask6)"/>
<use xlink:href="#surface26" mask="url(#mask7)"/>
<use xlink:href="#surface29" mask="url(#mask8)"/>
</g>
</svg>
